<svg xmlns="http://www.w3.org/2000/svg" width="2200" height="1400" viewBox="0 0 2200 1400">
  <rect width="2200" height="1400" fill="#e7d6b0"/>
  <rect x="30" y="30" width="2140" height="1340" rx="30" fill="#d9c295" stroke="#6b4f2f" stroke-width="12"/>
  <path d="M 250 250 C 250 130, 1950 130, 1950 250 L 1950 1150 C 1950 1270, 250 1270, 250 1150 Z" fill="#c7b08a" stroke="#4d3720" stroke-width="10"/>
  <path d="M 430 350 C 430 270, 1770 270, 1770 350 L 1770 1050 C 1770 1130, 430 1130, 430 1050 Z" fill="#e7d6b0" stroke="#4d3720" stroke-width="8"/>
  <g font-family="serif" font-size="48" font-weight="bold" fill="#3d2b1f" text-anchor="middle" dominant-baseline="middle">
<circle cx="1100.0" cy="240.0" r="60" fill="#efe2c2" stroke="#4d3720" stroke-width="5"/>
<text x="1100.0" y="240.0">1</text>
<circle cx="1296.7" cy="255.7" r="60" fill="#efe2c2" stroke="#4d3720" stroke-width="5"/>
<text x="1296.7" y="255.7">2</text>
<circle cx="1480.0" cy="301.6" r="60" fill="#efe2c2" stroke="#4d3720" stroke-width="5"/>
<text x="1480.0" y="301.6">3</text>
<circle cx="1637.4" cy="374.7" r="60" fill="#efe2c2" stroke="#4d3720" stroke-width="5"/>
<text x="1637.4" y="374.7">4</text>
<circle cx="1758.2" cy="470.0" r="60" fill="#efe2c2" stroke="#4d3720" stroke-width="5"/>
<text x="1758.2" y="470.0">5</text>
<circle cx="1834.1" cy="580.9" r="60" fill="#efe2c2" stroke="#4d3720" stroke-width="5"/>
<text x="1834.1" y="580.9">6</text>
<circle cx="1860.0" cy="700.0" r="60" fill="#efe2c2" stroke="#4d3720" stroke-width="5"/>
<text x="1860.0" y="700.0">7</text>
<circle cx="1834.1" cy="819.1" r="60" fill="#efe2c2" stroke="#4d3720" stroke-width="5"/>
<text x="1834.1" y="819.1">8</text>
<circle cx="1758.2" cy="930.0" r="60" fill="#efe2c2" stroke="#4d3720" stroke-width="5"/>
<text x="1758.2" y="930.0">9</text>
<circle cx="1637.4" cy="1025.3" r="60" fill="#efe2c2" stroke="#4d3720" stroke-width="5"/>
<text x="1637.4" y="1025.3">10</text>
<circle cx="1480.0" cy="1098.4" r="60" fill="#efe2c2" stroke="#4d3720" stroke-width="5"/>
<text x="1480.0" y="1098.4">11</text>
<circle cx="1296.7" cy="1144.3" r="60" fill="#efe2c2" stroke="#4d3720" stroke-width="5"/>
<text x="1296.7" y="1144.3">12</text>
<circle cx="1100.0" cy="1160.0" r="60" fill="#efe2c2" stroke="#4d3720" stroke-width="5"/>
<text x="1100.0" y="1160.0">13</text>
<circle cx="903.3" cy="1144.3" r="60" fill="#efe2c2" stroke="#4d3720" stroke-width="5"/>
<text x="903.3" y="1144.3">14</text>
<circle cx="720.0" cy="1098.4" r="60" fill="#efe2c2" stroke="#4d3720" stroke-width="5"/>
<text x="720.0" y="1098.4">15</text>
<circle cx="562.6" cy="1025.3" r="60" fill="#efe2c2" stroke="#4d3720" stroke-width="5"/>
<text x="562.6" y="1025.3">16</text>
<circle cx="441.8" cy="930.0" r="60" fill="#efe2c2" stroke="#4d3720" stroke-width="5"/>
<text x="441.8" y="930.0">17</text>
<circle cx="365.9" cy="819.1" r="60" fill="#efe2c2" stroke="#4d3720" stroke-width="5"/>
<text x="365.9" y="819.1">18</text>
<circle cx="340.0" cy="700.0" r="60" fill="#efe2c2" stroke="#4d3720" stroke-width="5"/>
<text x="340.0" y="700.0">19</text>
<circle cx="365.9" cy="580.9" r="60" fill="#efe2c2" stroke="#4d3720" stroke-width="5"/>
<text x="365.9" y="580.9">20</text>
<circle cx="441.8" cy="470.0" r="60" fill="#efe2c2" stroke="#4d3720" stroke-width="5"/>
<text x="441.8" y="470.0">21</text>
<circle cx="562.6" cy="374.7" r="60" fill="#efe2c2" stroke="#4d3720" stroke-width="5"/>
<text x="562.6" y="374.7">22</text>
<circle cx="720.0" cy="301.6" r="60" fill="#efe2c2" stroke="#4d3720" stroke-width="5"/>
<text x="720.0" y="301.6">23</text>
<circle cx="903.3" cy="255.7" r="60" fill="#efe2c2" stroke="#4d3720" stroke-width="5"/>
<text x="903.3" y="255.7">24</text>
  </g>
  <rect x="240" y="600" width="90" height="200" fill="#ffffff" stroke="#111111" stroke-width="4"/>
  <text x="285" y="710" font-family="serif" font-size="48" font-weight="bold" text-anchor="middle" fill="#111111">START</text>
</svg>
